<?xml version="1.0" encoding="utf-8"?>
<!-- Generator: Adobe Illustrator 23.0.4, SVG Export Plug-In . SVG Version: 6.00 Build 0)  -->
<svg version="1.1" id="Layer_1" xmlns="http://www.w3.org/2000/svg" xmlns:xlink="http://www.w3.org/1999/xlink" x="0px" y="0px"
	 viewBox="0 0 1920 1080" style="enable-background:new 0 0 1920 1080;" xml:space="preserve">
<style type="text/css">
	.st0{fill:#287A9F;}
	.st1{fill:#39BBDB;}
	.st2{fill:#F9CB16;}
	.st3{fill:#F68E21;}
</style>
<g>
	<g>
		<g>
			<path class="st0" d="M768.21,535.27c20.6,3.38,27.69,19.25,27.69,37.48v38.84c0,29.71-22.96,46.6-58.75,46.6h-61.12V421.81h61.79
				c35.79,0,56.73,16.89,56.73,46.6v29.72C794.55,515.01,787.12,532.91,768.21,535.27z M715.2,519.4h21.95
				c11.14,0,18.23-5.74,18.23-18.23v-27.35c0-12.49-7.09-18.24-18.23-18.24H715.2V519.4z M738.5,552.49h-23.3v71.93h23.3
				c11.14,0,18.23-5.74,18.23-18.24v-35.46C756.73,558.24,749.64,552.49,738.5,552.49z"/>
			<path class="st0" d="M947.5,658.19l-30.05-94.21h-19.59v94.21H858.7V421.81h61.12c35.79,0,59.43,14.18,59.43,49.98V514
				c0,22.63-9.46,36.81-25.66,43.9l33.77,100.29H947.5z M897.87,530.21h20.6c12.83,0,21.61-4.73,21.61-21.61v-30.73
				c0-16.89-8.78-21.61-21.61-21.61h-20.6V530.21z"/>
			<path class="st0" d="M1046.09,658.19V421.81h39.17v236.38H1046.09z"/>
			<path class="st0" d="M1274,471.79v136.42c0,35.79-23.64,49.98-59.43,49.98h-60.44V421.81h60.44
				C1250.37,421.81,1274,436,1274,471.79z M1213.22,456.26h-19.92v167.49h19.92c12.83,0,21.61-4.73,21.61-21.61V477.87
				C1234.83,460.98,1226.05,456.26,1213.22,456.26z"/>
			<path class="st0" d="M1460.39,610.91c0,36.47-23.64,49.98-59.43,49.98h-2.7c-35.79,0-59.43-13.17-59.43-49.98V469.09
				c0-35.12,23.64-49.98,59.43-49.98h2.7c35.79,0,59.43,14.86,59.43,49.98v33.77h-39.17v-27.69c0-16.89-8.78-21.61-21.61-21.61
				s-21.61,4.73-21.61,21.61v129.67c0,16.89,8.78,21.61,21.61,21.61s21.61-4.73,21.61-21.61v-35.12h-22.96v-33.09h62.13V610.91z"/>
			<path class="st0" d="M1525.88,658.19V421.81h103.67v34.44h-64.5v64.83h54.03v34.44h-54.03v68.21h65.51v34.44H1525.88z"/>
		</g>
	</g>
	<g>
		<g>
			<path class="st1" d="M496.44,599.42L496.44,599.42c16.23,0,29.38,13.15,29.38,29.38v0c0,16.23-13.15,29.38-29.38,29.38h0
				c-16.23,0-29.38-13.15-29.38-29.38v0C467.06,612.58,480.21,599.42,496.44,599.42z"/>
		</g>
		<path class="st2" d="M496.44,510.62L496.44,510.62c16.23,0,29.38,13.15,29.38,29.38l0,0c0,16.23-13.15,29.38-29.38,29.38h0
			c-16.23,0-29.38-13.15-29.38-29.38l0,0C467.06,523.77,480.21,510.62,496.44,510.62z"/>
		<g>
			<path class="st1" d="M407.63,599.42L407.63,599.42c16.23,0,29.38,13.15,29.38,29.38v0c0,16.23-13.15,29.38-29.38,29.38h0
				c-16.23,0-29.38-13.15-29.38-29.38v0C378.25,612.58,391.41,599.42,407.63,599.42z"/>
		</g>
		<path class="st2" d="M407.63,510.62L407.63,510.62c16.23,0,29.38,13.15,29.38,29.38l0,0c0,16.23-13.15,29.38-29.38,29.38h0
			c-16.23,0-29.38-13.15-29.38-29.38l0,0C378.25,523.77,391.41,510.62,407.63,510.62z"/>
		<g>
			<path class="st1" d="M318.82,599.42L318.82,599.42c16.23,0,29.38,13.15,29.38,29.38v0c0,16.23-13.15,29.38-29.38,29.38h0
				c-16.23,0-29.38-13.15-29.38-29.38v0C289.44,612.58,302.6,599.42,318.82,599.42z"/>
		</g>
		<path class="st3" d="M496.44,421.81L496.44,421.81c16.23,0,29.38,13.15,29.38,29.38v0c0,16.23-13.15,29.38-29.38,29.38h0
			c-16.23,0-29.38-13.15-29.38-29.38v0C467.06,434.97,480.21,421.81,496.44,421.81z"/>
	</g>
</g>
</svg>
